<svg width="30px" height="31px" viewBox="0 0 30 31" version="1.1" xmlns="http://www.w3.org/2000/svg" xmlns:xlink="http://www.w3.org/1999/xlink">
  <path d="M6.04166667,12.9916667 C8.44166667,17.7083333 12.3,21.5666667 17.025,23.9666667 L20.6916667,20.2916667 C21.15,19.8333333 21.8083333,19.7 22.3833333,19.8833333 C24.25,20.5 26.2583333,20.8333333 28.3333333,20.8333333 C29.2583333,20.8333333 30,21.575 30,22.5 L30,28.3333333 C30,29.2583333 29.2583333,30 28.3333333,30 C12.6833333,30 0,17.3166667 0,1.66666667 C0,0.741666667 0.75,0 1.66666667,0 L7.5,0 C8.425,0 9.16666667,0.741666667 9.16666667,1.66666667 C9.16666667,3.74166667 9.5,5.75 10.1166667,7.61666667 C10.3,8.19166667 10.1666667,8.85 9.70833333,9.30833333 L6.04166667,12.9916667 L6.04166667,12.9916667 Z" id="Shape" stroke="none" fill="#4B7FE2" fill-rule="evenodd"></path>
</svg>
