<svg width="25px" height="24px" viewBox="0 1 25 24" version="1.1" xmlns="http://www.w3.org/2000/svg" xmlns:xlink="http://www.w3.org/1999/xlink">
  <path d="M24.1311475,23.6885246 C24.1311475,24.4098361 23.5409836,25 22.8196721,25 L16.6557377,25 L16.6557377,15.6885246 L19.8032787,15.6885246 L20.2622951,12.0819672 L16.6557377,12.0819672 L16.6557377,9.78688525 C16.6557377,8.73770492 16.9180328,8.01639344 18.4262295,8.01639344 L20.3278689,8.01639344 L20.3278689,4.73770492 C20,4.67213115 18.8852459,4.60655738 17.5081967,4.60655738 C14.7540984,4.60655738 12.852459,6.31147541 12.852459,9.39344262 L12.852459,12.0819672 L9.70491803,12.0819672 L9.70491803,15.6885246 L12.852459,15.6885246 L12.852459,25 L1.31147541,25 C0.590163934,25 0,24.4098361 0,23.6885246 L0,2.31147541 C0,1.59016393 0.590163934,1 1.31147541,1 L22.7540984,1 C23.4754098,1 24.0655738,1.59016393 24.0655738,2.31147541 L24.1311475,23.6885246 Z" id="Page-1" stroke="none" fill="#B9B9B9" fill-rule="evenodd"></path>
</svg>
