<svg width="24px" height="24px" viewBox="222 1 24 24" version="1.1" xmlns="http://www.w3.org/2000/svg" xmlns:xlink="http://www.w3.org/1999/xlink">
  <g id="Page-1" stroke="none" stroke-width="1" fill="none" fill-rule="evenodd" transform="translate(222.000000, 1.000000)">
    <path d="M11.8054054,0 C8.56216216,0 8.17297297,0 6.94054054,0.0648648649 C5.70810811,0.12972973 4.8,0.324324324 4.08648649,0.648648649 C3.30810811,0.972972973 2.65945946,1.36216216 2.01081081,2.01081081 C1.36216216,2.65945946 0.972972973,3.30810811 0.648648649,4.08648649 C0.324324324,4.86486486 0.12972973,5.70810811 0.0648648649,6.94054054 C0,8.23783784 0,8.62702703 0,11.8054054 C0,15.0486486 0,15.4378378 0.0648648649,16.6702703 C0.12972973,17.9027027 0.324324324,18.8108108 0.648648649,19.5243243 C0.972972973,20.3027027 1.36216216,20.9513514 2.01081081,21.6 C2.65945946,22.2486486 3.30810811,22.6378378 4.08648649,22.9621622 C4.86486486,23.2864865 5.70810811,23.4810811 6.94054054,23.5459459 C8.23783784,23.6108108 8.62702703,23.6108108 11.8054054,23.6108108 C14.9837838,23.6108108 15.4378378,23.6108108 16.6702703,23.5459459 C17.9027027,23.4810811 18.8108108,23.2864865 19.5243243,22.9621622 C20.3027027,22.6378378 20.9513514,22.2486486 21.6,21.6 C22.2486486,20.9513514 22.6378378,20.3027027 22.9621622,19.5243243 C23.2864865,18.7459459 23.4810811,17.9027027 23.5459459,16.6702703 C23.6108108,15.372973 23.6108108,14.9837838 23.6108108,11.8054054 C23.6108108,8.62702703 23.6108108,8.17297297 23.5459459,6.94054054 C23.4810811,5.70810811 23.2864865,4.8 22.9621622,4.08648649 C22.6378378,3.30810811 22.2486486,2.65945946 21.6,2.01081081 C20.9513514,1.36216216 20.3027027,0.972972973 19.5243243,0.648648649 C18.7459459,0.324324324 17.9027027,0.12972973 16.6702703,0.0648648649 C15.4378378,0 15.0486486,0 11.8054054,0 M11.8054054,2.14054054 C14.9837838,2.14054054 15.372973,2.14054054 16.6054054,2.20540541 C17.772973,2.27027027 18.4216216,2.46486486 18.8108108,2.59459459 C19.3945946,2.78918919 19.7837838,3.04864865 20.172973,3.5027027 C20.5621622,3.89189189 20.8216216,4.28108108 21.0810811,4.86486486 C21.2756757,5.25405405 21.4054054,5.9027027 21.4702703,7.07027027 C21.5351351,8.3027027 21.5351351,8.69189189 21.5351351,11.8702703 C21.5351351,15.0486486 21.5351351,15.4378378 21.4702703,16.6702703 C21.4054054,17.8378378 21.2108108,18.4864865 21.0810811,18.8756757 C20.8864865,19.4594595 20.627027,19.8486486 20.172973,20.2378378 C19.7837838,20.627027 19.3297297,20.8864865 18.8108108,21.1459459 C18.4216216,21.3405405 17.772973,21.4702703 16.6054054,21.5351351 C15.372973,21.6 14.9837838,21.6 11.8054054,21.6 C8.62702703,21.6 8.23783784,21.6 7.00540541,21.5351351 C5.83783784,21.4702703 5.18918919,21.2756757 4.8,21.1459459 C4.21621622,20.9513514 3.82702703,20.6918919 3.43783784,20.2378378 C3.04864865,19.8486486 2.78918919,19.4594595 2.52972973,18.8756757 C2.33513514,18.4864865 2.20540541,17.8378378 2.14054054,16.6702703 C2.07567568,15.4378378 2.07567568,15.0486486 2.07567568,11.8702703 C2.07567568,8.69189189 2.07567568,8.3027027 2.14054054,7.07027027 C2.20540541,5.9027027 2.4,5.25405405 2.52972973,4.86486486 C2.72432432,4.28108108 2.98378378,3.89189189 3.43783784,3.5027027 C3.82702703,3.11351351 4.21621622,2.85405405 4.8,2.59459459 C5.18918919,2.4 5.83783784,2.27027027 7.00540541,2.20540541 C8.3027027,2.14054054 8.69189189,2.14054054 11.8054054,2.14054054" id="Fill-1" fill="#B9B9B9"></path>
    <path d="M11.8054054,15.827027 C9.6,15.827027 7.84864865,14.0756757 7.84864865,11.8702703 C7.84864865,9.66486486 9.6,7.91351351 11.8054054,7.91351351 C14.0108108,7.91351351 15.7621622,9.66486486 15.7621622,11.8702703 C15.7621622,14.0756757 14.0108108,15.827027 11.8054054,15.827027 M11.8054054,5.77297297 C8.43243243,5.77297297 5.70810811,8.4972973 5.70810811,11.8702703 C5.70810811,15.2432432 8.43243243,17.9675676 11.8054054,17.9675676 C15.1783784,17.9675676 17.9027027,15.2432432 17.9027027,11.8702703 C17.9027027,8.4972973 15.1783784,5.77297297 11.8054054,5.77297297" id="Fill-3" fill="#B9B9B9"></path>
    <path d="M18.162227,4.08648649 C18.9503351,4.08648649 19.5892541,4.72540541 19.5892541,5.51351351 C19.5892541,6.30162162 18.9503351,6.94054054 18.162227,6.94054054 C17.3741189,6.94054054 16.7352,6.30162162 16.7352,5.51351351 C16.7352,4.72540541 17.3741189,4.08648649 18.162227,4.08648649" id="Fill-5" fill="#B9B9B9"></path>
  </g>
</svg>
