<?xml version="1.0" standalone="no"?>
<!DOCTYPE svg PUBLIC "-//W3C//DTD SVG 20010904//EN"
 "http://www.w3.org/TR/2001/REC-SVG-20010904/DTD/svg10.dtd">
<svg version="1.0" xmlns="http://www.w3.org/2000/svg"
 width="16.000000pt" height="16.000000pt" viewBox="0 0 16.000000 16.000000"
 preserveAspectRatio="xMidYMid meet">
<metadata>
Created by potrace 1.11, written by Peter Selinger 2001-2013
</metadata>
<g transform="translate(0.000000,16.000000) scale(0.003125,-0.003125)"
fill="#000000" stroke="none">
<path d="M1640 4689 c-69 -14 -81 -18 -129 -45 -96 -52 -167 -145 -196 -254
-6 -25 -11 -105 -11 -178 1 -72 0 -132 -1 -132 -1 0 -60 29 -130 65 -126 64
-180 79 -258 76 -98 -4 -204 -52 -267 -119 -56 -61 -76 -92 -99 -160 -18 -54
-19 -96 -17 -1341 l3 -1286 33 -70 c80 -168 256 -260 435 -225 34 6 78 19 97
28 l35 17 1 160 c0 88 -1 163 -3 167 -2 4 -40 -11 -84 -33 -110 -55 -135 -58
-179 -21 l-35 30 -1 1238 c-1 819 2 1246 9 1261 11 24 63 53 94 52 10 0 37
-10 61 -22 138 -70 218 -113 222 -117 3 -3 22 -13 43 -22 29 -14 37 -23 37
-45 1 -62 1 -1100 0 -1928 -1 -788 1 -886 15 -934 49 -162 192 -273 365 -285
107 -7 23 -44 1170 516 124 61 306 150 405 198 99 48 266 129 370 181 105 51
192 93 195 94 32 7 543 271 566 293 141 132 171 345 72 506 -45 74 -102 121
-210 175 -27 13 -48 26 -48 27 0 2 44 26 98 53 118 60 179 111 220 188 37 70
43 96 47 188 4 121 -48 235 -141 309 -44 35 -96 69 -122 78 -4 1 -86 45 -182
96 -96 52 -236 126 -310 165 -74 39 -162 86 -195 104 -33 18 -67 36 -75 40 -8
3 -80 41 -160 83 -80 42 -199 105 -265 140 -66 34 -138 73 -160 85 -22 12
-110 59 -195 103 -85 45 -175 92 -200 106 -25 13 -65 35 -89 47 -24 12 -82 43
-130 69 -47 26 -144 77 -216 115 -71 37 -157 82 -191 100 -112 59 -212 81
-294 64z m228 -370 c64 -34 140 -74 167 -89 28 -15 104 -55 170 -90 134 -70
251 -132 370 -195 117 -63 249 -132 345 -183 47 -24 123 -65 170 -89 47 -25
122 -65 168 -89 45 -24 121 -65 170 -90 48 -26 130 -69 182 -97 52 -27 127
-66 165 -87 67 -36 111 -59 340 -180 114 -60 142 -83 150 -125 11 -56 -22 -88
-147 -149 -62 -29 -225 -109 -363 -177 -137 -67 -252 -123 -255 -124 -3 0 -84
-40 -180 -87 -266 -130 -634 -310 -835 -408 -99 -48 -279 -136 -400 -196 -121
-59 -223 -107 -227 -106 -3 1 -12 -5 -18 -13 -7 -8 -18 -15 -24 -15 -6 0 -56
-23 -110 -50 -55 -28 -100 -50 -101 -50 -2 0 -6 89 -6 135 -2 489 7 1805 13
1805 7 0 91 -43 316 -161 170 -90 276 -146 397 -209 66 -35 152 -80 190 -100
39 -21 124 -66 190 -100 66 -35 158 -83 205 -108 47 -24 126 -66 175 -92 50
-26 129 -68 177 -94 l88 -46 127 60 c71 34 145 69 165 78 21 9 36 21 35 25 -1
5 -56 37 -122 71 -66 34 -167 87 -225 118 -58 30 -163 86 -235 123 -71 37
-152 80 -180 95 -52 28 -192 102 -397 209 -65 33 -155 81 -200 105 -46 24
-128 67 -183 96 -55 29 -149 79 -210 111 -60 32 -157 83 -215 113 l-105 54 -1
196 c0 218 5 243 56 268 42 20 61 15 208 -63z m2155 -2011 c169 -88 201 -116
193 -169 -7 -46 -29 -68 -116 -111 -47 -23 -88 -43 -92 -43 -4 0 -13 -6 -19
-12 -7 -7 -16 -13 -20 -13 -7 0 -172 -80 -684 -330 -126 -62 -320 -156 -430
-210 -110 -53 -285 -139 -390 -190 -104 -51 -309 -151 -455 -223 -146 -71
-279 -133 -297 -137 -23 -6 -40 -3 -63 11 -39 24 -49 52 -48 128 1 34 -1 63
-4 66 -3 4 -3 20 1 38 4 18 4 48 1 67 -3 19 -3 53 -2 75 4 38 7 41 65 69 34
17 172 84 307 150 135 66 247 121 250 121 3 1 109 52 235 114 127 62 311 153
410 201 292 142 587 286 790 386 105 51 194 93 199 93 5 1 81 -36 169 -81z"/>
</g>
</svg>
