<?xml version="1.0" encoding="UTF-8"?>
<svg width="91px" height="65px" viewBox="0 0 91 65" version="1.1" xmlns="http://www.w3.org/2000/svg" xmlns:xlink="http://www.w3.org/1999/xlink">
    <!-- Generator: Sketch 41.2 (35397) - http://www.bohemiancoding.com/sketch -->
    <title>logo</title>
    <desc>Created with Sketch.</desc>
    <defs>
        <polygon id="path-1" points="39.8754075 0.285409091 0.2366 0.285409091 0.2366 40.3044617 39.8754075 40.3044617 39.8754075 0.285409091"></polygon>
        <polygon id="path-3" points="0 64.7145909 91 64.7145909 91 0.295454545 0 0.295454545"></polygon>
    </defs>
    <g id="Homepage" stroke="none" stroke-width="1" fill="none" fill-rule="evenodd">
        <g id="&lt;1980px-W" transform="translate(-121.000000, -56.000000)">
            <g id="logo" transform="translate(121.000000, 56.000000)">
                <g id="Group-3" transform="translate(25.444079, 0.010045)">
                    <mask id="mask-2" fill="white">
                        <use xlink:href="#path-1"></use>
                    </mask>
                    <g id="Clip-2"></g>
                    <path d="M35.8978237,25.8543705 L12.1150934,37.3061886 C11.6768566,37.5177341 11.3089651,37.3425295 11.1712678,37.2574386 C11.0332711,37.1723477 10.712975,36.9220977 10.7135737,36.4408023 L10.7177645,33.2516659 L32.9008105,22.5700977 L35.9238664,24.1389614 C36.4022151,24.3871432 36.4474158,24.827075 36.4447217,25.0046432 C36.4420276,25.1822114 36.3833566,25.6206659 35.8978237,25.8543705 L35.8978237,25.8543705 Z M10.7219553,30.0255977 L10.7471,11.0742568 L27.9311329,19.991075 L31.2355704,18.4325523 L10.7512908,7.80268864 L10.7560803,4.14762045 C10.7566789,3.65775682 11.0865539,3.40898409 11.2284421,3.32477955 C11.3703303,3.24087045 11.7469026,3.06950682 12.1863368,3.29877955 L36.4207743,15.9498477 C36.8979257,16.1992114 36.9425276,16.6385523 36.9395342,16.8161205 C36.9365408,16.9936886 36.8775704,17.4315523 36.3926362,17.6646659 L10.7219553,30.0255977 Z M7.77792566,36.4369614 C7.77612961,37.7777341 8.46252105,39.0026886 9.61409013,39.7138477 C10.2498928,40.1062114 10.9656197,40.3047568 11.6852382,40.3044614 C12.2692546,40.3044614 12.8556658,40.1738705 13.4022645,39.9106205 L37.1846954,28.4585068 C38.5164684,27.8176659 39.3579191,26.5108705 39.3803697,25.0483705 C39.4025211,23.5861659 38.6014816,22.2545523 37.2900638,21.5741205 L36.1729191,20.9944386 L37.6798072,20.2690977 C39.0097842,19.6285523 39.8506362,18.3235295 39.8748829,16.8633932 C39.8988303,15.4029614 39.1013829,14.0716432 37.7932579,13.3885523 L13.5588204,0.737188636 C12.3366066,0.0998931818 10.8994651,0.138302273 9.71526776,0.841779545 C8.53047171,1.54525682 7.82252763,2.77966591 7.82073158,4.144075 L7.81773816,6.28080227 L5.96600789,5.31968864 C4.74259671,4.68505227 3.30725132,4.72730227 2.12485,5.43196136 C0.942448684,6.13691591 0.2366,7.37191591 0.2366,8.73543864 L0.2366,32.1218477 C0.2366,33.4617341 0.923889474,34.6849159 2.07456053,35.3948932 C3.22553092,36.1042795 4.64111974,36.1775523 5.86063947,35.5904841 L6.15848487,35.4471886 L6.15848487,32.2231886 L4.57376776,32.9863477 C4.13493224,33.1975977 3.76793882,33.0223932 3.63024145,32.9375977 C3.49254408,32.8528023 3.17224803,32.6031432 3.17224803,32.1218477 L3.17224803,8.73543864 C3.17224803,8.24587045 3.501225,7.99680227 3.64281382,7.91230227 C3.73231711,7.858825 3.91581382,7.77077955 4.1496,7.77077955 C4.28550132,7.77077955 4.43846513,7.80062045 4.59981053,7.88423409 L7.81354737,9.552075 L7.78421184,31.4402341 L7.77792566,36.4369614 Z" id="Fill-1" fill="#FEFEFE" mask="url(#mask-2)"></path>
                </g>
                <path d="M7.37800461,60.1656841 C7.37800461,59.6052068 7.16517237,59.2169795 6.73890921,58.9998205 C6.31294539,58.7832523 5.74479408,58.6748205 5.03475461,58.6748205 L3.19499803,58.6748205 L3.19499803,61.7711841 L5.05421184,61.7711841 C5.31224474,61.7711841 5.58015592,61.749025 5.85794539,61.7044114 C6.13543553,61.6600932 6.38718224,61.5803205 6.61318553,61.4656841 C6.83888947,61.3510477 7.02298487,61.1882523 7.16517237,60.9778886 C7.30676118,60.7681159 7.37800461,60.4974795 7.37800461,60.1656841 M6.93258355,54.7952068 C6.93258355,54.3363659 6.75507368,54.0019114 6.40005395,53.7915477 C6.04473487,53.5811841 5.51909013,53.4760023 4.82192237,53.4760023 L3.19499803,53.4760023 L3.19499803,56.2665705 L4.97668224,56.2665705 C5.59632039,56.2665705 6.07736316,56.1424795 6.41951118,55.8940023 C6.76135987,55.645525 6.93258355,55.2791614 6.93258355,54.7952068 M10.689327,60.471775 C10.689327,61.2104114 10.5408533,61.8320477 10.2439059,62.3352068 C9.94695855,62.8386614 9.55302434,63.2431386 9.06270197,63.5486386 C8.57208026,63.8547295 8.01380724,64.0745477 7.38758355,64.2083886 C6.76135987,64.3419341 6.11927105,64.4090023 5.46101776,64.4090023 L0.000119736842,64.4090023 L0.000119736842,50.8765932 L5.46101776,50.8765932 C5.98995526,50.8765932 6.53236316,50.9309568 7.08734342,51.0390932 C7.64232368,51.147525 8.14581711,51.3321841 8.59782368,51.5936614 C9.04953092,51.8548432 9.41772171,52.2085023 9.70179737,52.6543432 C9.98557368,53.1004795 10.1277612,53.6674568 10.1277612,54.355275 C10.1277612,55.1075023 9.92121513,55.7282523 9.50812303,56.2187068 C9.09473158,56.7094568 8.55262303,57.0634114 7.88149803,57.2796841 L7.88149803,57.3180932 C8.26884671,57.3819114 8.63344539,57.4997977 8.97559342,57.6714568 C9.31744211,57.8434114 9.61468882,58.063525 9.86643553,58.3309114 C10.1181822,58.5985932 10.3181428,58.9108886 10.4669158,59.2675023 C10.6147908,59.6244114 10.689327,60.0256386 10.689327,60.471775" id="Fill-4" fill="#FEFEFE"></path>
                <mask id="mask-4" fill="white">
                    <use xlink:href="#path-3"></use>
                </mask>
                <g id="Clip-7"></g>
                <polygon id="Fill-6" fill="#FEFEFE" mask="url(#mask-4)" points="13.9855625 60.0035682 29.4298191 60.0035682 29.4298191 57.6428864 13.9855625 57.6428864"></polygon>
                <polygon id="Fill-8" fill="#FEFEFE" mask="url(#mask-4)" points="46.2423385 64.4089432 43.0471609 64.4089432 41.1493319 58.4838977 41.1107168 58.4838977 39.251503 64.4089432 36.0563253 64.4089432 32.7258451 54.8902841 36.1533122 54.8902841 37.8188516 60.9110568 37.876924 60.9110568 39.6002365 54.8902841 42.7954141 54.8902841 44.5770984 60.9110568 44.6157135 60.9110568 46.3004109 54.8902841 49.5925753 54.8902841"></polygon>
                <path d="M57.8275964,59.6115591 C57.8275964,59.3054682 57.7761095,59.0064682 57.6728365,58.7133773 C57.5692641,58.4199909 57.4210898,58.1623545 57.2271161,57.9389909 C57.0337411,57.7162182 56.7945668,57.5345136 56.5107905,57.3941727 C56.2264155,57.2544227 55.8974385,57.1844 55.5232609,57.1844 C55.1484845,57.1844 54.8195076,57.2544227 54.5354319,57.3941727 C54.2513563,57.5345136 54.015774,57.7162182 53.8286852,57.9389909 C53.6415964,58.1623545 53.4994089,58.4199909 53.4027214,58.7133773 C53.3060339,59.0064682 53.2575405,59.3054682 53.2575405,59.6115591 C53.2575405,59.9170591 53.3060339,60.2169455 53.4027214,60.5097409 C53.4994089,60.8031273 53.6445898,61.0675591 53.8385635,61.3030364 C54.0319385,61.5391045 54.2708135,61.7270136 54.5548891,61.8670591 C54.8389648,62.0074 55.1679418,62.0768318 55.5424188,62.0768318 C55.9168957,62.0768318 56.246172,62.0074 56.5302477,61.8670591 C56.814024,61.7270136 57.052899,61.5391045 57.2465734,61.3030364 C57.4402477,61.0675591 57.585728,60.8031273 57.6821161,60.5097409 C57.779103,60.2169455 57.8275964,59.9170591 57.8275964,59.6115591 M60.887172,59.6115591 C60.887172,60.3889 60.7449845,61.0926727 60.4612082,61.7234682 C60.1768332,62.3542636 59.7894845,62.8893318 59.2994615,63.3289682 C58.8085405,63.7686045 58.2403891,64.1095591 57.5950076,64.3518318 C56.9493266,64.5935136 56.2590438,64.71465 55.5232609,64.71465 C54.799751,64.71465 54.1124615,64.5935136 53.4607938,64.3518318 C52.8088266,64.1095591 52.2409747,63.7686045 51.7569385,63.3289682 C51.272603,62.8893318 50.888547,62.3542636 50.6044714,61.7234682 C50.3203957,61.0926727 50.1785076,60.3889 50.1785076,59.6115591 C50.1785076,58.8345136 50.3203957,58.1334 50.6044714,57.5091045 C50.888547,56.8848091 51.272603,56.3559455 51.7569385,55.9228091 C52.2409747,55.4896727 52.8088266,55.1578773 53.4607938,54.9289 C54.1124615,54.6993318 54.799751,54.5846955 55.5232609,54.5846955 C56.2590438,54.5846955 56.9493266,54.6993318 57.5950076,54.9289 C58.2403891,55.1578773 58.8085405,55.4896727 59.2994615,55.9228091 C59.7894845,56.3559455 60.1768332,56.8848091 60.4612082,57.5091045 C60.7449845,58.1334 60.887172,58.8345136 60.887172,59.6115591" id="Fill-9" fill="#FEFEFE" mask="url(#mask-4)"></path>
                <path d="M69.5830003,57.4708727 C69.4408128,57.4327591 69.3022174,57.4070545 69.1666155,57.39435 C69.0310135,57.3819409 68.8987043,57.3751455 68.7693885,57.3751455 C68.3434247,57.3751455 67.9854115,57.4519636 67.6950497,57.6038273 C67.4043885,57.7565773 67.1717997,57.9409409 66.9975826,58.1569182 C66.8236648,58.3728955 66.6976418,58.6077818 66.6204115,58.8621682 C66.5425826,59.1165545 66.5039674,59.3384409 66.5039674,59.5290091 L66.5039674,64.4090318 L63.328247,64.4090318 L63.328247,54.9016 L66.3878227,54.9016 L66.3878227,56.2778273 L66.4264378,56.2778273 C66.671599,55.7906227 67.0200332,55.3929409 67.4720398,55.0847818 C67.9240464,54.7769182 68.4466977,54.6229864 69.0408918,54.6229864 C69.1696089,54.6229864 69.2953326,54.6294864 69.4183622,54.6418955 C69.5407931,54.6546 69.6407734,54.6741 69.7186023,54.6995091 L69.5830003,57.4708727 Z" id="Fill-10" fill="#FEFEFE" mask="url(#mask-4)"></path>
                <polygon id="Fill-11" fill="#FEFEFE" mask="url(#mask-4)" points="81.9826783 64.4089432 78.0514184 64.4089432 74.8951553 59.8409205 74.8370829 59.8409205 74.8370829 64.4089432 71.6419053 64.4089432 71.6419053 49.9591477 74.8370829 49.9591477 74.8370829 58.7512841 74.8951553 58.7512841 77.9744875 54.8902841 81.8279184 54.8902841 78.1097901 59.1912159"></polygon>
                <path d="M89.2571105,57.7003227 C88.9987783,57.4583455 88.6955447,57.2541864 88.3471105,57.0887318 C87.998377,56.9229818 87.6304855,56.8402545 87.2431368,56.8402545 C86.9458901,56.8402545 86.6716928,56.8972773 86.4199461,57.0119136 C86.168798,57.1268455 86.042775,57.3248 86.042775,57.6045955 C86.042775,57.8722773 86.1813704,58.0634364 86.4591599,58.1777773 C86.7363507,58.2927091 87.1850645,58.42005 87.805002,58.5600955 C88.1663079,58.6366182 88.5309066,58.74505 88.8990974,58.8850955 C89.2669888,59.0254364 89.5989592,59.2103909 89.8962059,59.4393682 C90.1931533,59.6686409 90.4320283,59.9490273 90.6128309,60.2805273 C90.7933342,60.6120273 90.8837355,61.0067545 90.8837355,61.4655955 C90.8837355,62.0644818 90.7610053,62.5711864 90.5158441,62.9848227 C90.2703836,63.39905 89.9509855,63.7338 89.5573507,63.9884818 C89.1634164,64.2437545 88.7212882,64.4281182 88.2306664,64.5427545 C87.7403441,64.6573909 87.2497224,64.7147091 86.7594,64.7147091 C85.9718309,64.7147091 85.2004263,64.5906182 84.4451862,64.3421409 C83.6899461,64.0936636 83.0607289,63.7273 82.5572355,63.24305 L84.3386204,61.3890727 C84.6223967,61.6945727 84.9711303,61.9498455 85.3842224,62.1534136 C85.7973145,62.3575727 86.2364493,62.4592091 86.7010283,62.4592091 C86.9590612,62.4592091 87.2144,62.3989364 87.4661467,62.2780955 C87.7178934,62.1569591 87.8436171,61.94305 87.8436171,61.63755 C87.8436171,61.3447545 87.6885579,61.1281864 87.3790382,60.9878455 C87.0689197,60.8478 86.5848836,60.7012545 85.9263309,60.5479136 C85.5907684,60.4716864 85.2552059,60.3697545 84.9193441,60.2424136 C84.5837816,60.1150727 84.2835414,59.9428227 84.0192224,59.7262545 C83.7543046,59.5096864 83.5381796,59.2423 83.3702487,58.9232091 C83.2023178,58.6053 83.118502,58.2229818 83.118502,57.77655 C83.118502,57.2033682 83.2409329,56.7158682 83.4863934,56.3143455 C83.7315546,55.9131182 84.0479592,55.5851636 84.4353079,55.3301864 C84.8223572,55.0755045 85.2516138,54.8875955 85.7230776,54.7664591 C86.1942421,54.6453227 86.6624132,54.5847545 87.1272914,54.5847545 C87.8499033,54.5847545 88.55665,54.6964364 89.2475316,54.9192091 C89.9378145,55.1422773 90.5221303,55.4767318 91.0001796,55.9228682 L89.2571105,57.7003227 Z" id="Fill-12" fill="#FEFEFE" mask="url(#mask-4)"></path>
            </g>
        </g>
    </g>
</svg>