<svg version="1.1" id="Livello_1" xmlns="http://www.w3.org/2000/svg" xmlns:xlink="http://www.w3.org/1999/xlink" x="0px" y="0px"
	 viewBox="0 0 304 218" style="enable-background:new 0 0 304 218;" xml:space="preserve">
<style type="text/css">
	.st0{fill:#4A4A4A;}
</style>
<path class="st0" d="M111,122.4c0,4.5,2.3,8.7,6.1,11.1c2.1,1.3,4.5,2,6.9,2c2,0,3.9-0.4,5.7-1.3l79.4-38.8
	c4.4-2.2,7.3-6.6,7.3-11.5c0.1-4.9-2.6-9.5-7-11.8l-3.7-2l5-2.5c4.4-2.2,7.3-6.6,7.3-11.5c0.1-4.9-2.6-9.4-7-11.8l-81-42.8
	c-4.1-2.2-8.9-2-12.8,0.4c-4,2.4-6.3,6.6-6.3,11.2l0,7.2l-6.2-3.3c-4.1-2.1-8.9-2-12.8,0.4c-4,2.4-6.3,6.6-6.3,11.2v79.2
	c0,4.5,2.3,8.7,6.1,11.1c3.8,2.4,8.6,2.6,12.6,0.7l1-0.5v-10.9l-5.3,2.6c-1.5,0.7-2.7,0.1-3.2-0.2c-0.5-0.3-1.5-1.1-1.5-2.8V28.6
	c0-1.7,1.1-2.5,1.6-2.8c0.3-0.2,0.9-0.5,1.7-0.5c0.5,0,1,0.1,1.5,0.4l10.7,5.6l-0.1,74.1L111,122.4z M120.8,100.7l0.1-64.1
	l57.4,30.2l11-5.3l-68.4-36l0-12.4c0-1.7,1.1-2.5,1.6-2.8c0.5-0.3,1.7-0.9,3.2-0.1l81,42.8c1.6,0.8,1.7,2.3,1.7,2.9
	s-0.2,2.1-1.8,2.9L120.8,100.7z M204.9,86.5l-79.4,38.8c-1.5,0.7-2.7,0.1-3.2-0.2s-1.5-1.1-1.5-2.8l0-10.8l74.1-36.2l10.1,5.3
	c1.6,0.8,1.7,2.3,1.7,2.9C206.7,84.3,206.5,85.8,204.9,86.5z"/>
<g>
	<path class="st0" d="M35.7,203.7c0,2.5-0.5,4.6-1.5,6.3c-1,1.7-2.3,3.1-3.9,4.1c-1.6,1-3.5,1.8-5.6,2.2c-2.1,0.5-4.2,0.7-6.4,0.7H0
		v-45.8h18.2c1.8,0,3.6,0.2,5.4,0.6c1.9,0.4,3.5,1,5,1.9c1.5,0.9,2.7,2.1,3.7,3.6c0.9,1.5,1.4,3.4,1.4,5.8c0,2.5-0.7,4.6-2.1,6.3
		c-1.4,1.7-3.2,2.9-5.4,3.6v0.1c1.3,0.2,2.5,0.6,3.7,1.2c1.1,0.6,2.1,1.3,3,2.2c0.8,0.9,1.5,2,2,3.2
		C35.5,200.8,35.7,202.2,35.7,203.7z M23.2,184.5c0-1.6-0.6-2.7-1.8-3.4c-1.2-0.7-2.9-1.1-5.3-1.1h-5.4v9.4h6c2.1,0,3.7-0.4,4.8-1.3
		C22.6,187.3,23.2,186.1,23.2,184.5z M24.6,202.6c0-1.9-0.7-3.2-2.1-3.9c-1.4-0.7-3.3-1.1-5.7-1.1h-6.1v10.5h6.2
		c0.9,0,1.8-0.1,2.7-0.2c0.9-0.2,1.8-0.4,2.5-0.8c0.8-0.4,1.4-0.9,1.8-1.7C24.4,204.7,24.6,203.8,24.6,202.6z"/>
	<path class="st0" d="M46.7,202.1v-8h51.6v8H46.7z"/>
	<path class="st0" d="M154.5,217h-10.7l-6.3-20.1h-0.1l-6.2,20.1h-10.7l-11.1-32.2h11.5l5.6,20.4h0.2l5.8-20.4H143l6,20.4h0.1
		l5.6-20.4h11L154.5,217z"/>
	<path class="st0" d="M203.4,200.8c0,2.6-0.5,5-1.4,7.1c-1,2.1-2.2,3.9-3.9,5.4c-1.6,1.5-3.5,2.6-5.7,3.5c-2.2,0.8-4.5,1.2-6.9,1.2
		c-2.4,0-4.7-0.4-6.9-1.2c-2.2-0.8-4.1-2-5.7-3.5c-1.6-1.5-2.9-3.3-3.8-5.4c-0.9-2.1-1.4-4.5-1.4-7.1c0-2.6,0.5-5,1.4-7.1
		c0.9-2.1,2.2-3.9,3.8-5.4c1.6-1.5,3.5-2.6,5.7-3.4c2.2-0.8,4.5-1.2,6.9-1.2c2.5,0,4.8,0.4,6.9,1.2c2.2,0.8,4.1,1.9,5.7,3.4
		c1.6,1.5,2.9,3.3,3.9,5.4C202.9,195.8,203.4,198.1,203.4,200.8z M193.2,200.8c0-1-0.2-2-0.5-3c-0.3-1-0.8-1.9-1.5-2.6
		c-0.6-0.8-1.4-1.4-2.4-1.8c-1-0.5-2-0.7-3.3-0.7c-1.3,0-2.4,0.2-3.3,0.7c-0.9,0.5-1.7,1.1-2.4,1.8c-0.6,0.8-1.1,1.6-1.4,2.6
		c-0.3,1-0.5,2-0.5,3c0,1,0.2,2,0.5,3c0.3,1,0.8,1.9,1.5,2.7c0.6,0.8,1.4,1.4,2.4,1.9c0.9,0.5,2,0.7,3.3,0.7c1.3,0,2.4-0.2,3.3-0.7
		c0.9-0.5,1.7-1.1,2.4-1.9c0.6-0.8,1.1-1.7,1.5-2.7C193,202.8,193.2,201.8,193.2,200.8z"/>
	<path class="st0" d="M232.5,193.5c-0.5-0.1-0.9-0.2-1.4-0.3c-0.5,0-0.9-0.1-1.3-0.1c-1.4,0-2.6,0.3-3.6,0.8c-1,0.5-1.7,1.1-2.3,1.9
		c-0.6,0.7-1,1.5-1.3,2.4c-0.3,0.9-0.4,1.6-0.4,2.3V217h-10.6v-32.2h10.2v4.7h0.1c0.8-1.6,2-3,3.5-4s3.3-1.6,5.2-1.6
		c0.4,0,0.9,0,1.3,0.1c0.4,0,0.7,0.1,1,0.2L232.5,193.5z"/>
	<path class="st0" d="M273.9,217h-13.1l-10.5-15.5H250V217h-10.7v-48.9H250v29.8h0.2l10.3-13.1h12.9l-12.4,14.6L273.9,217z"/>
	<path class="st0" d="M298.2,194.3c-0.9-0.8-1.9-1.5-3-2.1c-1.2-0.6-2.4-0.8-3.7-0.8c-1,0-1.9,0.2-2.7,0.6c-0.8,0.4-1.3,1.1-1.3,2
		c0,0.9,0.5,1.6,1.4,1.9c0.9,0.4,2.4,0.8,4.5,1.3c1.2,0.3,2.4,0.6,3.7,1.1c1.2,0.5,2.3,1.1,3.3,1.9c1,0.8,1.8,1.7,2.4,2.8
		c0.6,1.1,0.9,2.5,0.9,4c0,2-0.4,3.7-1.2,5.1c-0.8,1.4-1.9,2.5-3.2,3.4c-1.3,0.9-2.8,1.5-4.4,1.9c-1.6,0.4-3.3,0.6-4.9,0.6
		c-2.6,0-5.2-0.4-7.7-1.3c-2.5-0.8-4.6-2.1-6.3-3.7l6-6.3c0.9,1,2.1,1.9,3.5,2.6c1.4,0.7,2.8,1,4.4,1c0.9,0,1.7-0.2,2.6-0.6
		c0.8-0.4,1.3-1.1,1.3-2.2c0-1-0.5-1.7-1.6-2.2c-1-0.5-2.7-1-4.9-1.5c-1.1-0.3-2.2-0.6-3.4-1c-1.1-0.4-2.1-1-3-1.7
		c-0.9-0.7-1.6-1.6-2.2-2.7c-0.6-1.1-0.8-2.4-0.8-3.9c0-1.9,0.4-3.6,1.2-4.9c0.8-1.4,1.9-2.5,3.2-3.3c1.3-0.9,2.7-1.5,4.3-1.9
		c1.6-0.4,3.1-0.6,4.7-0.6c2.4,0,4.8,0.4,7.1,1.1c2.3,0.8,4.3,1.9,5.9,3.4L298.2,194.3z"/>
</g>
<path class="st0" d="M111,122.4c0,4.5,2.3,8.7,6.1,11.1c2.1,1.3,4.5,2,6.9,2c2,0,3.9-0.4,5.7-1.3l79.4-38.8
	c4.4-2.2,7.3-6.6,7.3-11.5c0.1-4.9-2.6-9.5-7-11.8l-3.7-2l5-2.5c4.4-2.2,7.3-6.6,7.3-11.5c0.1-4.9-2.6-9.4-7-11.8l-81-42.8
	c-4.1-2.2-8.9-2-12.8,0.4c-4,2.4-6.3,6.6-6.3,11.2l0,7.2l-6.2-3.3c-4.1-2.1-8.9-2-12.8,0.4c-4,2.4-6.3,6.6-6.3,11.2v79.2
	c0,4.5,2.3,8.7,6.1,11.1c3.8,2.4,8.6,2.6,12.6,0.7l1-0.5v-10.9l-5.3,2.6c-1.5,0.7-2.7,0.1-3.2-0.2c-0.5-0.3-1.5-1.1-1.5-2.8V28.6
	c0-1.7,1.1-2.5,1.6-2.8c0.3-0.2,0.9-0.5,1.7-0.5c0.5,0,1,0.1,1.5,0.4l10.7,5.6l-0.1,74.1L111,122.4z M120.8,100.7l0.1-64.1
	l57.4,30.2l11-5.3l-68.4-36l0-12.4c0-1.7,1.1-2.5,1.6-2.8c0.5-0.3,1.7-0.9,3.2-0.1l81,42.8c1.6,0.8,1.7,2.3,1.7,2.9
	s-0.2,2.1-1.8,2.9L120.8,100.7z M204.9,86.5l-79.4,38.8c-1.5,0.7-2.7,0.1-3.2-0.2s-1.5-1.1-1.5-2.8l0-10.8l74.1-36.2l10.1,5.3
	c1.6,0.8,1.7,2.3,1.7,2.9C206.7,84.3,206.5,85.8,204.9,86.5z"/>
<g>
	<path class="st0" d="M35.7,203.7c0,2.5-0.5,4.6-1.5,6.3c-1,1.7-2.3,3.1-3.9,4.1c-1.6,1-3.5,1.8-5.6,2.2c-2.1,0.5-4.2,0.7-6.4,0.7H0
		v-45.8h18.2c1.8,0,3.6,0.2,5.4,0.6c1.9,0.4,3.5,1,5,1.9c1.5,0.9,2.7,2.1,3.7,3.6c0.9,1.5,1.4,3.4,1.4,5.8c0,2.5-0.7,4.6-2.1,6.3
		c-1.4,1.7-3.2,2.9-5.4,3.6v0.1c1.3,0.2,2.5,0.6,3.7,1.2c1.1,0.6,2.1,1.3,3,2.2c0.8,0.9,1.5,2,2,3.2
		C35.5,200.8,35.7,202.2,35.7,203.7z M23.2,184.5c0-1.6-0.6-2.7-1.8-3.4c-1.2-0.7-2.9-1.1-5.3-1.1h-5.4v9.4h6c2.1,0,3.7-0.4,4.8-1.3
		C22.6,187.3,23.2,186.1,23.2,184.5z M24.6,202.6c0-1.9-0.7-3.2-2.1-3.9c-1.4-0.7-3.3-1.1-5.7-1.1h-6.1v10.5h6.2
		c0.9,0,1.8-0.1,2.7-0.2c0.9-0.2,1.8-0.4,2.5-0.8c0.8-0.4,1.4-0.9,1.8-1.7C24.4,204.7,24.6,203.8,24.6,202.6z"/>
	<path class="st0" d="M46.7,202.1v-8h51.6v8H46.7z"/>
	<path class="st0" d="M154.5,217h-10.7l-6.3-20.1h-0.1l-6.2,20.1h-10.7l-11.1-32.2h11.5l5.6,20.4h0.2l5.8-20.4H143l6,20.4h0.1
		l5.6-20.4h11L154.5,217z"/>
	<path class="st0" d="M203.4,200.8c0,2.6-0.5,5-1.4,7.1c-1,2.1-2.2,3.9-3.9,5.4c-1.6,1.5-3.5,2.6-5.7,3.5c-2.2,0.8-4.5,1.2-6.9,1.2
		c-2.4,0-4.7-0.4-6.9-1.2c-2.2-0.8-4.1-2-5.7-3.5c-1.6-1.5-2.9-3.3-3.8-5.4c-0.9-2.1-1.4-4.5-1.4-7.1c0-2.6,0.5-5,1.4-7.1
		c0.9-2.1,2.2-3.9,3.8-5.4c1.6-1.5,3.5-2.6,5.7-3.4c2.2-0.8,4.5-1.2,6.9-1.2c2.5,0,4.8,0.4,6.9,1.2c2.2,0.8,4.1,1.9,5.7,3.4
		c1.6,1.5,2.9,3.3,3.9,5.4C202.9,195.8,203.4,198.1,203.4,200.8z M193.2,200.8c0-1-0.2-2-0.5-3c-0.3-1-0.8-1.9-1.5-2.6
		c-0.6-0.8-1.4-1.4-2.4-1.8c-1-0.5-2-0.7-3.3-0.7c-1.3,0-2.4,0.2-3.3,0.7c-0.9,0.5-1.7,1.1-2.4,1.8c-0.6,0.8-1.1,1.6-1.4,2.6
		c-0.3,1-0.5,2-0.5,3c0,1,0.2,2,0.5,3c0.3,1,0.8,1.9,1.5,2.7c0.6,0.8,1.4,1.4,2.4,1.9c0.9,0.5,2,0.7,3.3,0.7c1.3,0,2.4-0.2,3.3-0.7
		c0.9-0.5,1.7-1.1,2.4-1.9c0.6-0.8,1.1-1.7,1.5-2.7C193,202.8,193.2,201.8,193.2,200.8z"/>
	<path class="st0" d="M232.5,193.5c-0.5-0.1-0.9-0.2-1.4-0.3c-0.5,0-0.9-0.1-1.3-0.1c-1.4,0-2.6,0.3-3.6,0.8c-1,0.5-1.7,1.1-2.3,1.9
		c-0.6,0.7-1,1.5-1.3,2.4c-0.3,0.9-0.4,1.6-0.4,2.3V217h-10.6v-32.2h10.2v4.7h0.1c0.8-1.6,2-3,3.5-4s3.3-1.6,5.2-1.6
		c0.4,0,0.9,0,1.3,0.1c0.4,0,0.7,0.1,1,0.2L232.5,193.5z"/>
	<path class="st0" d="M273.9,217h-13.1l-10.5-15.5H250V217h-10.7v-48.9H250v29.8h0.2l10.3-13.1h12.9l-12.4,14.6L273.9,217z"/>
	<path class="st0" d="M298.2,194.3c-0.9-0.8-1.9-1.5-3-2.1c-1.2-0.6-2.4-0.8-3.7-0.8c-1,0-1.9,0.2-2.7,0.6c-0.8,0.4-1.3,1.1-1.3,2
		c0,0.9,0.5,1.6,1.4,1.9c0.9,0.4,2.4,0.8,4.5,1.3c1.2,0.3,2.4,0.6,3.7,1.1c1.2,0.5,2.3,1.1,3.3,1.9c1,0.8,1.8,1.7,2.4,2.8
		c0.6,1.1,0.9,2.5,0.9,4c0,2-0.4,3.7-1.2,5.1c-0.8,1.4-1.9,2.5-3.2,3.4c-1.3,0.9-2.8,1.5-4.4,1.9c-1.6,0.4-3.3,0.6-4.9,0.6
		c-2.6,0-5.2-0.4-7.7-1.3c-2.5-0.8-4.6-2.1-6.3-3.7l6-6.3c0.9,1,2.1,1.9,3.5,2.6c1.4,0.7,2.8,1,4.4,1c0.9,0,1.7-0.2,2.6-0.6
		c0.8-0.4,1.3-1.1,1.3-2.2c0-1-0.5-1.7-1.6-2.2c-1-0.5-2.7-1-4.9-1.5c-1.1-0.3-2.2-0.6-3.4-1c-1.1-0.4-2.1-1-3-1.7
		c-0.9-0.7-1.6-1.6-2.2-2.7c-0.6-1.1-0.8-2.4-0.8-3.9c0-1.9,0.4-3.6,1.2-4.9c0.8-1.4,1.9-2.5,3.2-3.3c1.3-0.9,2.7-1.5,4.3-1.9
		c1.6-0.4,3.1-0.6,4.7-0.6c2.4,0,4.8,0.4,7.1,1.1c2.3,0.8,4.3,1.9,5.9,3.4L298.2,194.3z"/>
</g>
</svg>
