<svg id="Livello_1" data-name="Livello 1" xmlns="http://www.w3.org/2000/svg" viewBox="0 0 304 258.43"><defs><style>.cls-1{fill:#4b7fe2;}</style></defs><title>bbworks-logo</title><path class="cls-1" d="M235.37,205.28A13,13,0,0,0,254.16,217l79.45-38.76A13.06,13.06,0,0,0,334,155l-3.73-2,5-2.46a13.06,13.06,0,0,0,.38-23.29l-81-42.82A13.06,13.06,0,0,0,235.51,96v7.23L229.32,100a13.06,13.06,0,0,0-19.14,11.56v79.15A13.06,13.06,0,0,0,229,202.42l1-.48V191l-5.29,2.58a3.25,3.25,0,0,1-4.68-2.93V111.52a3.21,3.21,0,0,1,1.57-2.79,3.33,3.33,0,0,1,1.69-.48,3.2,3.2,0,0,1,1.5.38l10.74,5.64-.1,74.08Zm9.84-21.7.08-64.14,57.41,30.18,11-5.28-68.43-36,0-12.37a3.26,3.26,0,0,1,4.78-2.87l81,42.82a3.26,3.26,0,0,1-.09,5.8Zm84.1-14.12-79.45,38.76a3.25,3.25,0,0,1-4.68-2.93V194.5l74.11-36.15,10.1,5.31a3.25,3.25,0,0,1-.09,5.81Z" transform="translate(-124.39 -82.92)"/><path class="cls-1" d="M160.1,286.6a12.36,12.36,0,0,1-1.49,6.31,11.8,11.8,0,0,1-3.95,4.11,17.18,17.18,0,0,1-5.6,2.23,30.34,30.34,0,0,1-6.44.68H124.39v-45.8h18.24a28,28,0,0,1,5.43.55,16.09,16.09,0,0,1,5,1.88,10.09,10.09,0,0,1,5.11,9.35,9.53,9.53,0,0,1-2.07,6.31,11.54,11.54,0,0,1-5.43,3.59v.13a12.57,12.57,0,0,1,3.65,1.2,10.57,10.57,0,0,1,3,2.23,10.46,10.46,0,0,1,2,3.17A10.67,10.67,0,0,1,160.1,286.6Zm-12.55-19.21a3.67,3.67,0,0,0-1.78-3.4,10.42,10.42,0,0,0-5.27-1.07h-5.43v9.44h6a8,8,0,0,0,4.82-1.26A4.33,4.33,0,0,0,147.55,267.38ZM149,285.56a4,4,0,0,0-2.13-3.95,12.5,12.5,0,0,0-5.69-1.1h-6.15V291h6.21a16.67,16.67,0,0,0,2.68-.23,8.42,8.42,0,0,0,2.52-.81,4.59,4.59,0,0,0,2.56-4.4Z" transform="translate(-124.39 -82.92)"/><path class="cls-1" d="M171.11,285v-8H222.7v8Z" transform="translate(-124.39 -82.92)"/><path class="cls-1" d="M278.87,299.92H268.19l-6.34-20.05h-.13l-6.21,20.05H244.84l-11.13-32.22h11.45l5.56,20.38h.19l5.76-20.38h10.67l6,20.38h.13l5.63-20.38h11Z" transform="translate(-124.39 -82.92)"/><path class="cls-1" d="M327.79,283.69a17.43,17.43,0,0,1-1.42,7.15,16.08,16.08,0,0,1-3.88,5.43,17.81,17.81,0,0,1-5.69,3.46,20,20,0,0,1-13.81,0,17.33,17.33,0,0,1-5.69-3.46,16.25,16.25,0,0,1-3.85-5.43,17.41,17.41,0,0,1-1.42-7.15,17.19,17.19,0,0,1,1.42-7.12,16,16,0,0,1,3.85-5.37,16.72,16.72,0,0,1,5.69-3.36,21.05,21.05,0,0,1,13.81,0,17.16,17.16,0,0,1,5.69,3.36,15.81,15.81,0,0,1,3.88,5.37A17.21,17.21,0,0,1,327.79,283.69Zm-10.22,0a9.2,9.2,0,0,0-.52-3,8.06,8.06,0,0,0-1.49-2.62,7.58,7.58,0,0,0-2.39-1.84,8,8,0,0,0-6.6,0,7.21,7.21,0,0,0-2.36,1.84,7.89,7.89,0,0,0-1.42,2.62,9.76,9.76,0,0,0,0,6.08,8.28,8.28,0,0,0,1.46,2.68,7.13,7.13,0,0,0,2.39,1.91,8,8,0,0,0,6.6,0,7.15,7.15,0,0,0,2.39-1.91,8.28,8.28,0,0,0,1.46-2.68A9.74,9.74,0,0,0,317.57,283.69Z" transform="translate(-124.39 -82.92)"/><path class="cls-1" d="M356.84,276.44a8.36,8.36,0,0,0-1.39-.26c-.45,0-.89-.06-1.33-.06a7.59,7.59,0,0,0-3.59.77,7.32,7.32,0,0,0-2.33,1.87,7.08,7.08,0,0,0-1.26,2.39,8,8,0,0,0-.39,2.26v16.52H335.94V267.75h10.22v4.66h.13a10.51,10.51,0,0,1,3.49-4A9,9,0,0,1,355,266.8a12.34,12.34,0,0,1,1.26.06,4.94,4.94,0,0,1,1,.19Z" transform="translate(-124.39 -82.92)"/><path class="cls-1" d="M398.26,299.92H385.13l-10.54-15.46h-.19v15.46H363.72V251h10.67v29.76h.19l10.29-13.07h12.87l-12.42,14.56Z" transform="translate(-124.39 -82.92)"/><path class="cls-1" d="M422.56,277.22a11.85,11.85,0,0,0-3-2.07,8.4,8.4,0,0,0-3.69-.84,6.48,6.48,0,0,0-2.75.58,2,2,0,0,0-1.26,2,2,2,0,0,0,1.39,1.94,30.21,30.21,0,0,0,4.5,1.29,24.44,24.44,0,0,1,3.65,1.1,13,13,0,0,1,3.33,1.88,9,9,0,0,1,2.39,2.85,8.36,8.36,0,0,1,.91,4,9.66,9.66,0,0,1-4.43,8.54,13.81,13.81,0,0,1-4.43,1.88,21.25,21.25,0,0,1-4.92.58,24.29,24.29,0,0,1-7.73-1.26,16.23,16.23,0,0,1-6.31-3.72l6-6.28a11.87,11.87,0,0,0,3.49,2.59,9.69,9.69,0,0,0,4.4,1,5.79,5.79,0,0,0,2.56-.61,2.21,2.21,0,0,0,1.26-2.17,2.32,2.32,0,0,0-1.55-2.2,28,28,0,0,0-4.85-1.49,24.89,24.89,0,0,1-3.36-1,10.64,10.64,0,0,1-3-1.75,8.68,8.68,0,0,1-2.17-2.72,8.31,8.31,0,0,1-.84-3.88,9.41,9.41,0,0,1,1.23-4.95,10.41,10.41,0,0,1,3.17-3.33,14.11,14.11,0,0,1,4.3-1.91,18.58,18.58,0,0,1,4.69-.61,22.67,22.67,0,0,1,7.08,1.13,15.32,15.32,0,0,1,5.85,3.4Z" transform="translate(-124.39 -82.92)"/><path class="cls-1" d="M141.64,336.27a2.17,2.17,0,0,1-.23,1,1.89,1.89,0,0,1-.62.69,2.73,2.73,0,0,1-.9.38,4.61,4.61,0,0,1-1.06.12H138v2.67h-1.71v-7.08h2.6a4.85,4.85,0,0,1,1.08.12,2.55,2.55,0,0,1,.88.37,1.79,1.79,0,0,1,.59.67A2.21,2.21,0,0,1,141.64,336.27Zm-1.71,0a.76.76,0,0,0-.1-.41.7.7,0,0,0-.27-.25,1.13,1.13,0,0,0-.39-.12,3.14,3.14,0,0,0-.44,0H138v1.67h.72a2.51,2.51,0,0,0,.46,0,1.24,1.24,0,0,0,.4-.14.76.76,0,0,0,.27-.26A.79.79,0,0,0,139.93,336.28Z" transform="translate(-124.39 -82.92)"/><path class="cls-1" d="M148.67,341.17l-.55-1.39h-2.74l-.52,1.39H143l3-7.08h1.66l2.94,7.08Zm-1.9-5.19-.9,2.43h1.78Z" transform="translate(-124.39 -82.92)"/><path class="cls-1" d="M156.7,335.93a1.54,1.54,0,0,0-.58-.44,1.62,1.62,0,0,0-.69-.17l-.34,0a.9.9,0,0,0-.32.12.78.78,0,0,0-.23.22.59.59,0,0,0-.09.35.56.56,0,0,0,.07.3.68.68,0,0,0,.22.21,2,2,0,0,0,.34.17l.45.16.75.26a2.8,2.8,0,0,1,.71.38,2,2,0,0,1,.53.59,1.72,1.72,0,0,1,.21.89,2.31,2.31,0,0,1-.22,1.05,2.11,2.11,0,0,1-.6.74,2.6,2.6,0,0,1-.87.43,3.68,3.68,0,0,1-1,.14,4.17,4.17,0,0,1-1.47-.26,3.12,3.12,0,0,1-1.18-.75l1.12-1.14a2.05,2.05,0,0,0,.69.54,1.86,1.86,0,0,0,.84.21,1.72,1.72,0,0,0,.37,0,.92.92,0,0,0,.31-.13.65.65,0,0,0,.22-.24.76.76,0,0,0,.08-.36.57.57,0,0,0-.1-.34,1,1,0,0,0-.29-.25,2.29,2.29,0,0,0-.46-.21l-.62-.21a6,6,0,0,1-.67-.26,2.23,2.23,0,0,1-.58-.39,1.79,1.79,0,0,1-.41-.57,1.94,1.94,0,0,1-.15-.82,2,2,0,0,1,.24-1,2.08,2.08,0,0,1,.63-.69,2.7,2.7,0,0,1,.88-.39,4,4,0,0,1,1-.12,3.68,3.68,0,0,1,1.22.22,3.15,3.15,0,0,1,1.1.65Z" transform="translate(-124.39 -82.92)"/><path class="cls-1" d="M164.41,335.93a1.54,1.54,0,0,0-.58-.44,1.62,1.62,0,0,0-.69-.17l-.34,0a.9.9,0,0,0-.32.12.78.78,0,0,0-.23.22.59.59,0,0,0-.09.35.56.56,0,0,0,.07.3.68.68,0,0,0,.22.21,2,2,0,0,0,.34.17l.45.16.75.26a2.8,2.8,0,0,1,.71.38,2,2,0,0,1,.53.59,1.72,1.72,0,0,1,.21.89,2.31,2.31,0,0,1-.22,1.05,2.11,2.11,0,0,1-.6.74,2.6,2.6,0,0,1-.87.43,3.68,3.68,0,0,1-1,.14,4.17,4.17,0,0,1-1.47-.26,3.12,3.12,0,0,1-1.18-.75l1.12-1.14a2.05,2.05,0,0,0,.69.54,1.86,1.86,0,0,0,.84.21,1.72,1.72,0,0,0,.37,0,.92.92,0,0,0,.31-.13.65.65,0,0,0,.22-.24.76.76,0,0,0,.08-.36.57.57,0,0,0-.1-.34,1,1,0,0,0-.29-.25,2.29,2.29,0,0,0-.46-.21l-.62-.21a6,6,0,0,1-.67-.26,2.23,2.23,0,0,1-.58-.39,1.79,1.79,0,0,1-.41-.57,1.94,1.94,0,0,1-.15-.82,2,2,0,0,1,.24-1,2.08,2.08,0,0,1,.63-.69,2.7,2.7,0,0,1,.88-.39,4,4,0,0,1,1-.12,3.68,3.68,0,0,1,1.22.22,3.15,3.15,0,0,1,1.1.65Z" transform="translate(-124.39 -82.92)"/><path class="cls-1" d="M168.38,341.17v-7.08h1.72v7.08Z" transform="translate(-124.39 -82.92)"/><path class="cls-1" d="M180.74,337.6a4,4,0,0,1-.29,1.54,3.49,3.49,0,0,1-.8,1.19,3.58,3.58,0,0,1-1.23.76,4.51,4.51,0,0,1-3.08,0,3.59,3.59,0,0,1-1.22-.76,3.49,3.49,0,0,1-.81-1.19,4,4,0,0,1-.29-1.54,3.9,3.9,0,0,1,.29-1.54,3.35,3.35,0,0,1,.81-1.16,3.58,3.58,0,0,1,1.22-.74,4.68,4.68,0,0,1,3.08,0,3.57,3.57,0,0,1,1.23.74,3.36,3.36,0,0,1,.8,1.16A3.9,3.9,0,0,1,180.74,337.6Zm-1.83,0a2.42,2.42,0,0,0-.15-.86,2.06,2.06,0,0,0-.42-.69,1.93,1.93,0,0,0-.64-.45,2,2,0,0,0-.83-.17,2,2,0,0,0-1.46.62,2,2,0,0,0-.42.69,2.5,2.5,0,0,0-.15.86,2.53,2.53,0,0,0,.15.89,2.1,2.1,0,0,0,.42.69,1.88,1.88,0,0,0,.64.46,2.12,2.12,0,0,0,1.64,0,1.94,1.94,0,0,0,.64-.46,2.05,2.05,0,0,0,.42-.69A2.53,2.53,0,0,0,178.91,337.6Z" transform="translate(-124.39 -82.92)"/><path class="cls-1" d="M188.17,341.17l-2.85-4.63h0l0,4.63h-1.66v-7.08h2l2.84,4.62h0l0-4.62h1.66v7.08Z" transform="translate(-124.39 -82.92)"/><path class="cls-1" d="M198.17,341.17l-.55-1.39h-2.74l-.52,1.39H192.5l3-7.08h1.66l2.94,7.08Zm-1.9-5.19-.9,2.43h1.78Z" transform="translate(-124.39 -82.92)"/><path class="cls-1" d="M204.89,335.55v5.62h-1.71v-5.62h-2v-1.46h5.71v1.46Z" transform="translate(-124.39 -82.92)"/><path class="cls-1" d="M209.47,341.17v-7.08h4.76v1.44h-3.11v1.34h2.94v1.37h-2.94v1.47h3.29v1.46Z" transform="translate(-124.39 -82.92)"/><path class="cls-1" d="M229,341.17h-1.69l-1.4-4.79h0l-1.4,4.79h-1.7l-2-7.08h1.84l1.12,4.71h0l1.26-4.71h1.78l1.27,4.71h0l1.14-4.71H231Z" transform="translate(-124.39 -82.92)"/><path class="cls-1" d="M233.57,341.17v-7.08h4.76v1.44h-3.11v1.34h2.94v1.37h-2.94v1.47h3.29v1.46Z" transform="translate(-124.39 -82.92)"/><path class="cls-1" d="M247,339.11a1.91,1.91,0,0,1-.23,1,1.83,1.83,0,0,1-.61.63,2.64,2.64,0,0,1-.87.34,4.67,4.67,0,0,1-1,.11h-2.82v-7.08h2.82a4.33,4.33,0,0,1,.84.08,2.48,2.48,0,0,1,.78.29,1.56,1.56,0,0,1,.79,1.45,1.47,1.47,0,0,1-.32,1,1.78,1.78,0,0,1-.84.55v0a1.94,1.94,0,0,1,.57.18,1.65,1.65,0,0,1,.46.35,1.61,1.61,0,0,1,.31.49A1.65,1.65,0,0,1,247,339.11Zm-1.94-3a.57.57,0,0,0-.27-.52,1.61,1.61,0,0,0-.81-.17h-.84v1.46H244a1.24,1.24,0,0,0,.75-.2A.67.67,0,0,0,245,336.14Zm.23,2.81a.62.62,0,0,0-.33-.61,1.93,1.93,0,0,0-.88-.17h-1v1.62h1a2.57,2.57,0,0,0,.42,0,1.32,1.32,0,0,0,.39-.12.75.75,0,0,0,.29-.25A.75.75,0,0,0,245.25,338.95Z" transform="translate(-124.39 -82.92)"/><path class="cls-1" d="M259.19,341.17l-.67-.69a2.77,2.77,0,0,1-.83.6,2.88,2.88,0,0,1-1.23.23,3.54,3.54,0,0,1-.94-.12,2.39,2.39,0,0,1-.81-.39,2,2,0,0,1-.57-.66,1.92,1.92,0,0,1-.21-.93,1.86,1.86,0,0,1,.44-1.23,2.29,2.29,0,0,1,.48-.42,3.72,3.72,0,0,1,.56-.31,2.79,2.79,0,0,1-.53-.7,1.77,1.77,0,0,1-.2-.84,1.59,1.59,0,0,1,.2-.82,1.76,1.76,0,0,1,.52-.56,2.14,2.14,0,0,1,.71-.32,3.2,3.2,0,0,1,.79-.1,3,3,0,0,1,.79.1,2.13,2.13,0,0,1,.69.33,1.65,1.65,0,0,1,.49.56,1.67,1.67,0,0,1,.19.81,1.64,1.64,0,0,1-.11.61,1.73,1.73,0,0,1-.31.5,2.42,2.42,0,0,1-.45.41,5,5,0,0,1-.55.33l.89.91.71-1.09H261l-1.53,2,1.76,1.75Zm-2.89-3a1.64,1.64,0,0,0-.52.33.92.92,0,0,0-.14,1,.92.92,0,0,0,.22.28,1,1,0,0,0,.31.17,1,1,0,0,0,.35.06,1.22,1.22,0,0,0,.59-.14,1.33,1.33,0,0,0,.45-.4Zm1.26-2.43a.63.63,0,0,0-.67-.65.68.68,0,0,0-.49.19.61.61,0,0,0-.19.46.93.93,0,0,0,.13.48,1.64,1.64,0,0,0,.4.44,1.85,1.85,0,0,0,.58-.37A.74.74,0,0,0,257.56,335.75Z" transform="translate(-124.39 -82.92)"/><path class="cls-1" d="M274.71,337.61a3.49,3.49,0,0,1-.34,1.6,3.24,3.24,0,0,1-.91,1.11,3.79,3.79,0,0,1-1.27.64,5.17,5.17,0,0,1-1.44.21H268.1v-7.08h2.56a6.35,6.35,0,0,1,1.48.17,3.73,3.73,0,0,1,1.3.58,3,3,0,0,1,.92,1.08A3.65,3.65,0,0,1,274.71,337.61Zm-1.78,0a2.24,2.24,0,0,0-.19-1,1.68,1.68,0,0,0-.52-.63,2.07,2.07,0,0,0-.74-.33,3.6,3.6,0,0,0-.85-.1h-.85v4.14h.81a3.67,3.67,0,0,0,.89-.1,2.1,2.1,0,0,0,.75-.34,1.72,1.72,0,0,0,.52-.64A2.25,2.25,0,0,0,272.93,337.61Z" transform="translate(-124.39 -82.92)"/><path class="cls-1" d="M277.63,341.17v-7.08h1.72v7.08Z" transform="translate(-124.39 -82.92)"/><path class="cls-1" d="M287.69,341.18a6.37,6.37,0,0,1-1.51.17,4.4,4.4,0,0,1-1.57-.27,3.61,3.61,0,0,1-1.23-.76,3.47,3.47,0,0,1-.81-1.18,4.16,4.16,0,0,1,0-3.06,3.43,3.43,0,0,1,.82-1.17,3.6,3.6,0,0,1,1.22-.75,4.3,4.3,0,0,1,1.51-.26,4.64,4.64,0,0,1,1.56.25,3.23,3.23,0,0,1,1.17.68l-1.08,1.23a1.88,1.88,0,0,0-.66-.48,2.24,2.24,0,0,0-.93-.18,2.06,2.06,0,0,0-.83.17,2,2,0,0,0-.66.46,2.08,2.08,0,0,0-.43.7,2.45,2.45,0,0,0-.16.88,2.78,2.78,0,0,0,.14.9,2,2,0,0,0,.42.71,1.87,1.87,0,0,0,.68.46,2.43,2.43,0,0,0,.92.17,3.44,3.44,0,0,0,.57,0,2.12,2.12,0,0,0,.5-.14v-1.29H286V337h2.92v3.75A5.46,5.46,0,0,1,287.69,341.18Z" transform="translate(-124.39 -82.92)"/><path class="cls-1" d="M292.11,341.17v-7.08h1.72v7.08Z" transform="translate(-124.39 -82.92)"/><path class="cls-1" d="M300.11,335.55v5.62H298.4v-5.62h-2v-1.46h5.71v1.46Z" transform="translate(-124.39 -82.92)"/><path class="cls-1" d="M308.9,341.17l-.55-1.39h-2.74l-.52,1.39h-1.86l3-7.08h1.66l2.94,7.08ZM307,336l-.9,2.43h1.78Z" transform="translate(-124.39 -82.92)"/><path class="cls-1" d="M313.19,341.17v-7.08h1.72v5.59h2.74v1.49Z" transform="translate(-124.39 -82.92)"/><path class="cls-1" d="M330.91,337.61a3.48,3.48,0,0,1-.34,1.6,3.23,3.23,0,0,1-.91,1.11,3.79,3.79,0,0,1-1.27.64,5.17,5.17,0,0,1-1.44.21h-2.64v-7.08h2.56a6.36,6.36,0,0,1,1.48.17,3.73,3.73,0,0,1,1.3.58,3,3,0,0,1,.92,1.08A3.65,3.65,0,0,1,330.91,337.61Zm-1.78,0a2.24,2.24,0,0,0-.2-1,1.67,1.67,0,0,0-.52-.63,2.07,2.07,0,0,0-.74-.33,3.6,3.6,0,0,0-.86-.1H326v4.14h.81a3.67,3.67,0,0,0,.89-.1,2.1,2.1,0,0,0,.75-.34,1.72,1.72,0,0,0,.52-.64A2.25,2.25,0,0,0,329.14,337.61Z" transform="translate(-124.39 -82.92)"/><path class="cls-1" d="M333.84,341.17v-7.08h4.76v1.44h-3.11v1.34h2.94v1.37h-2.94v1.47h3.29v1.46Z" transform="translate(-124.39 -82.92)"/><path class="cls-1" d="M345.23,341.17h-1.71l-2.68-7.08h1.92l1.64,5h0l1.63-5H348Z" transform="translate(-124.39 -82.92)"/><path class="cls-1" d="M350.33,341.17v-7.08h4.76v1.44H352v1.34h2.94v1.37H352v1.47h3.29v1.46Z" transform="translate(-124.39 -82.92)"/><path class="cls-1" d="M358.2,341.17v-7.08h1.72v5.59h2.74v1.49Z" transform="translate(-124.39 -82.92)"/><path class="cls-1" d="M372.34,337.6a4,4,0,0,1-.29,1.54,3.5,3.5,0,0,1-.8,1.19,3.58,3.58,0,0,1-1.23.76,4.51,4.51,0,0,1-3.08,0,3.59,3.59,0,0,1-1.22-.76,3.49,3.49,0,0,1-.8-1.19,4,4,0,0,1-.29-1.54,3.9,3.9,0,0,1,.29-1.54,3.35,3.35,0,0,1,.8-1.16,3.58,3.58,0,0,1,1.22-.74,4.68,4.68,0,0,1,3.08,0,3.57,3.57,0,0,1,1.23.74,3.36,3.36,0,0,1,.8,1.16A3.9,3.9,0,0,1,372.34,337.6Zm-1.83,0a2.41,2.41,0,0,0-.15-.86,2,2,0,0,0-.42-.69,1.93,1.93,0,0,0-.64-.45,2,2,0,0,0-.83-.17,2,2,0,0,0-1.46.62,2,2,0,0,0-.42.69,2.5,2.5,0,0,0-.14.86,2.54,2.54,0,0,0,.15.89,2.11,2.11,0,0,0,.42.69,1.89,1.89,0,0,0,.64.46,2.12,2.12,0,0,0,1.64,0,1.94,1.94,0,0,0,.64-.46,2,2,0,0,0,.42-.69A2.52,2.52,0,0,0,370.51,337.6Z" transform="translate(-124.39 -82.92)"/><path class="cls-1" d="M380.64,336.27a2.17,2.17,0,0,1-.23,1,1.89,1.89,0,0,1-.62.69,2.72,2.72,0,0,1-.9.38,4.62,4.62,0,0,1-1.06.12H377v2.67h-1.71v-7.08h2.6a4.85,4.85,0,0,1,1.08.12,2.55,2.55,0,0,1,.88.37,1.79,1.79,0,0,1,.59.67A2.21,2.21,0,0,1,380.64,336.27Zm-1.71,0a.76.76,0,0,0-.1-.41.69.69,0,0,0-.27-.25,1.14,1.14,0,0,0-.39-.12,3.12,3.12,0,0,0-.44,0H377v1.67h.72a2.5,2.5,0,0,0,.46,0,1.24,1.24,0,0,0,.4-.14.75.75,0,0,0,.27-.26A.79.79,0,0,0,378.93,336.28Z" transform="translate(-124.39 -82.92)"/><path class="cls-1" d="M389.89,341.17l0-5h0l-1.84,5h-1.2l-1.79-5h0l0,5h-1.61v-7.08h2.43l1.61,4.54h0l1.54-4.54h2.47v7.08Z" transform="translate(-124.39 -82.92)"/><path class="cls-1" d="M394.82,341.17v-7.08h4.76v1.44h-3.11v1.34h2.94v1.37h-2.94v1.47h3.29v1.46Z" transform="translate(-124.39 -82.92)"/><path class="cls-1" d="M407.19,341.17l-2.85-4.63h0l0,4.63h-1.66v-7.08h2l2.84,4.62h0l0-4.62h1.66v7.08Z" transform="translate(-124.39 -82.92)"/><path class="cls-1" d="M415.42,335.55v5.62h-1.71v-5.62h-2v-1.46h5.71v1.46Z" transform="translate(-124.39 -82.92)"/><path class="cls-1" d="M235.37,205.28A13,13,0,0,0,254.16,217l79.45-38.76A13.06,13.06,0,0,0,334,155l-3.73-2,5-2.46a13.06,13.06,0,0,0,.38-23.29l-81-42.82A13.06,13.06,0,0,0,235.51,96v7.23L229.32,100a13.06,13.06,0,0,0-19.14,11.56v79.15A13.06,13.06,0,0,0,229,202.42l1-.48V191l-5.29,2.58a3.25,3.25,0,0,1-4.68-2.93V111.52a3.21,3.21,0,0,1,1.57-2.79,3.33,3.33,0,0,1,1.69-.48,3.2,3.2,0,0,1,1.5.38l10.74,5.64-.1,74.08Zm9.84-21.7.08-64.14,57.41,30.18,11-5.28-68.43-36,0-12.37a3.26,3.26,0,0,1,4.78-2.87l81,42.82a3.26,3.26,0,0,1-.09,5.8Zm84.1-14.12-79.45,38.76a3.25,3.25,0,0,1-4.68-2.93V194.5l74.11-36.15,10.1,5.31a3.25,3.25,0,0,1-.09,5.81Z" transform="translate(-124.39 -82.92)"/><path class="cls-1" d="M160.1,286.6a12.36,12.36,0,0,1-1.49,6.31,11.8,11.8,0,0,1-3.95,4.11,17.18,17.18,0,0,1-5.6,2.23,30.34,30.34,0,0,1-6.44.68H124.39v-45.8h18.24a28,28,0,0,1,5.43.55,16.09,16.09,0,0,1,5,1.88,10.09,10.09,0,0,1,5.11,9.35,9.53,9.53,0,0,1-2.07,6.31,11.54,11.54,0,0,1-5.43,3.59v.13a12.57,12.57,0,0,1,3.65,1.2,10.57,10.57,0,0,1,3,2.23,10.46,10.46,0,0,1,2,3.17A10.67,10.67,0,0,1,160.1,286.6Zm-12.55-19.21a3.67,3.67,0,0,0-1.78-3.4,10.42,10.42,0,0,0-5.27-1.07h-5.43v9.44h6a8,8,0,0,0,4.82-1.26A4.33,4.33,0,0,0,147.55,267.38ZM149,285.56a4,4,0,0,0-2.13-3.95,12.5,12.5,0,0,0-5.69-1.1h-6.15V291h6.21a16.67,16.67,0,0,0,2.68-.23,8.42,8.42,0,0,0,2.52-.81,4.59,4.59,0,0,0,2.56-4.4Z" transform="translate(-124.39 -82.92)"/><path class="cls-1" d="M171.11,285v-8H222.7v8Z" transform="translate(-124.39 -82.92)"/><path class="cls-1" d="M278.87,299.92H268.19l-6.34-20.05h-.13l-6.21,20.05H244.84l-11.13-32.22h11.45l5.56,20.38h.19l5.76-20.38h10.67l6,20.38h.13l5.63-20.38h11Z" transform="translate(-124.39 -82.92)"/><path class="cls-1" d="M327.79,283.69a17.43,17.43,0,0,1-1.42,7.15,16.08,16.08,0,0,1-3.88,5.43,17.81,17.81,0,0,1-5.69,3.46,20,20,0,0,1-13.81,0,17.33,17.33,0,0,1-5.69-3.46,16.25,16.25,0,0,1-3.85-5.43,17.41,17.41,0,0,1-1.42-7.15,17.19,17.19,0,0,1,1.42-7.12,16,16,0,0,1,3.85-5.37,16.72,16.72,0,0,1,5.69-3.36,21.05,21.05,0,0,1,13.81,0,17.16,17.16,0,0,1,5.69,3.36,15.81,15.81,0,0,1,3.88,5.37A17.21,17.21,0,0,1,327.79,283.69Zm-10.22,0a9.2,9.2,0,0,0-.52-3,8.06,8.06,0,0,0-1.49-2.62,7.58,7.58,0,0,0-2.39-1.84,8,8,0,0,0-6.6,0,7.21,7.21,0,0,0-2.36,1.84,7.89,7.89,0,0,0-1.42,2.62,9.76,9.76,0,0,0,0,6.08,8.28,8.28,0,0,0,1.46,2.68,7.13,7.13,0,0,0,2.39,1.91,8,8,0,0,0,6.6,0,7.15,7.15,0,0,0,2.39-1.91,8.28,8.28,0,0,0,1.46-2.68A9.74,9.74,0,0,0,317.57,283.69Z" transform="translate(-124.39 -82.92)"/><path class="cls-1" d="M356.84,276.44a8.36,8.36,0,0,0-1.39-.26c-.45,0-.89-.06-1.33-.06a7.59,7.59,0,0,0-3.59.77,7.32,7.32,0,0,0-2.33,1.87,7.08,7.08,0,0,0-1.26,2.39,8,8,0,0,0-.39,2.26v16.52H335.94V267.75h10.22v4.66h.13a10.51,10.51,0,0,1,3.49-4A9,9,0,0,1,355,266.8a12.34,12.34,0,0,1,1.26.06,4.94,4.94,0,0,1,1,.19Z" transform="translate(-124.39 -82.92)"/><path class="cls-1" d="M398.26,299.92H385.13l-10.54-15.46h-.19v15.46H363.72V251h10.67v29.76h.19l10.29-13.07h12.87l-12.42,14.56Z" transform="translate(-124.39 -82.92)"/><path class="cls-1" d="M422.56,277.22a11.85,11.85,0,0,0-3-2.07,8.4,8.4,0,0,0-3.69-.84,6.48,6.48,0,0,0-2.75.58,2,2,0,0,0-1.26,2,2,2,0,0,0,1.39,1.94,30.21,30.21,0,0,0,4.5,1.29,24.44,24.44,0,0,1,3.65,1.1,13,13,0,0,1,3.33,1.88,9,9,0,0,1,2.39,2.85,8.36,8.36,0,0,1,.91,4,9.66,9.66,0,0,1-4.43,8.54,13.81,13.81,0,0,1-4.43,1.88,21.25,21.25,0,0,1-4.92.58,24.29,24.29,0,0,1-7.73-1.26,16.23,16.23,0,0,1-6.31-3.72l6-6.28a11.87,11.87,0,0,0,3.49,2.59,9.69,9.69,0,0,0,4.4,1,5.79,5.79,0,0,0,2.56-.61,2.21,2.21,0,0,0,1.26-2.17,2.32,2.32,0,0,0-1.55-2.2,28,28,0,0,0-4.85-1.49,24.89,24.89,0,0,1-3.36-1,10.64,10.64,0,0,1-3-1.75,8.68,8.68,0,0,1-2.17-2.72,8.31,8.31,0,0,1-.84-3.88,9.41,9.41,0,0,1,1.23-4.95,10.41,10.41,0,0,1,3.17-3.33,14.11,14.11,0,0,1,4.3-1.91,18.58,18.58,0,0,1,4.69-.61,22.67,22.67,0,0,1,7.08,1.13,15.32,15.32,0,0,1,5.85,3.4Z" transform="translate(-124.39 -82.92)"/></svg>