<svg width="26px" height="25px" viewBox="333 0 26 25" version="1.1" xmlns="http://www.w3.org/2000/svg" xmlns:xlink="http://www.w3.org/1999/xlink">
  <g id="Page-1" stroke="none" stroke-width="1" fill="none" fill-rule="evenodd" transform="translate(333.000000, 0.000000)">
    <polygon id="Fill-1" fill="#B9B9B9" points="0.685714286 23.6571429 5.62285714 23.6571429 5.62285714 8.02285714 0.685714286 8.02285714"></polygon>
    <g id="Group-6" transform="translate(0.000000, 0.342857)" fill="#B9B9B9">
      <path d="M19.0628571,7.54285714 C16.2514286,7.54285714 14.4685714,9.05142857 14.1257143,10.1485714 L14.1257143,7.68 L8.57142857,7.68 C8.64,8.98285714 8.57142857,23.3142857 8.57142857,23.3142857 L14.1257143,23.3142857 L14.1257143,14.88 C14.1257143,14.4 14.1257143,13.92 14.2628571,13.5771429 C14.6742857,12.6171429 15.4285714,11.6571429 16.9371429,11.6571429 C18.8571429,11.6571429 19.7485714,13.0971429 19.7485714,15.2228571 L19.7485714,23.3142857 L25.3714286,23.3142857 L25.3714286,14.6057143 C25.3028571,9.80571429 22.56,7.54285714 19.0628571,7.54285714" id="Fill-2"></path>
      <path d="M3.01714286,0.342857143 C1.16571429,0.342857143 0,1.50857143 0,3.08571429 C0,4.59428571 1.16571429,5.76 2.94857143,5.76 L3.01714286,5.76 C4.86857143,5.76 6.03428571,4.59428571 6.03428571,3.01714286 C5.96571429,1.50857143 4.86857143,0.342857143 3.01714286,0.342857143" id="Fill-4"></path>
    </g>
  </g>
</svg>
