<svg width="29px" height="25px" viewBox="111 1 29 25" version="1.1" xmlns="http://www.w3.org/2000/svg" xmlns:xlink="http://www.w3.org/1999/xlink">
  <path d="M138.66879,1.45859873 C137.522293,2.14649682 136.299363,2.68152866 134.923567,2.91082803 C133.853503,1.76433121 132.324841,1 130.643312,1 C127.433121,1 124.757962,3.67515924 124.757962,7.03821656 C124.757962,7.49681529 124.834395,7.95541401 124.910828,8.41401274 C120.019108,8.18471338 115.738854,5.7388535 112.834395,2.14649682 C112.299363,3.06369427 112.070064,4.05732484 112.070064,5.20382166 C112.070064,7.26751592 113.140127,9.10191083 114.66879,10.2484076 C113.675159,10.2484076 112.834395,9.94267516 111.993631,9.48407643 L111.993631,9.56050955 C111.993631,12.4649682 113.980892,14.910828 116.732484,15.4458599 C116.273885,15.5987261 115.738854,15.6751592 115.203822,15.6751592 C114.821656,15.6751592 114.43949,15.6751592 114.133758,15.5987261 C114.898089,17.9681529 117.038217,19.7261146 119.636943,19.8025478 C117.649682,21.4076433 115.127389,22.4012739 112.375796,22.4012739 C111.917197,22.4012739 111.458599,22.4012739 111,22.3248408 C113.598726,24.0063694 116.656051,25 120.019108,25 C130.796178,25 136.757962,15.8280255 136.757962,7.87898089 L136.757962,7.11464968 C137.904459,6.27388535 138.898089,5.20382166 139.66242,3.98089172 C138.592357,4.43949045 137.44586,4.82165605 136.299363,4.89808917 C137.292994,4.05732484 138.210191,2.91082803 138.66879,1.45859873" id="Page-1" stroke="none" fill="#B9B9B9" fill-rule="evenodd"></path>
</svg>
